<mxfile host="Electron" modified="2023-11-16T15:47:52.833Z" agent="Mozilla/5.0 (Windows NT 10.0; Win64; x64) AppleWebKit/537.36 (KHTML, like Gecko) draw.io/22.0.2 Chrome/114.0.5735.289 Electron/25.8.4 Safari/537.36" version="22.0.2" etag="Vy8kKoKRqfZUR3q-4a_1" type="device">
  <diagram id="8FN1ofDU0DHuPvSbKhNJ" name="Page-1">
    <mxGraphModel dx="4886" dy="2174" grid="1" gridSize="10" guides="1" tooltips="1" connect="1" arrows="1" fold="1" page="0" pageScale="1" pageWidth="827" pageHeight="1169" background="none" math="0" shadow="0">
      <root>
        <mxCell id="0" />
        <mxCell id="1" parent="0" />
        <mxCell id="node3" value="&lt;p style=&quot;margin:0px;margin-top:4px;text-align:center;&quot;&gt;&lt;b&gt;Advisor&lt;/b&gt;&lt;/p&gt;&lt;hr size=&quot;1&quot;/&gt;&lt;p style=&quot;margin:0 0 0 4px;line-height:1.6;&quot;&gt;+ Advisor(int, String, String, String, String): &lt;/p&gt;&lt;hr size=&quot;1&quot;/&gt;&lt;p style=&quot;margin:0 0 0 4px;line-height:1.6;&quot;&gt;- requestList: List&amp;lt;Registration&amp;gt;&lt;br/&gt;- requestNumber: int&lt;br/&gt;- studentsAdvised: List&amp;lt;Student&amp;gt;&lt;/p&gt;&lt;hr size=&quot;1&quot;/&gt;&lt;p style=&quot;margin:0 0 0 4px;line-height:1.6;&quot;&gt;+ getRequests(): List&amp;lt;Registration&amp;gt;&lt;br/&gt;+ getRequestList(): List&amp;lt;Registration&amp;gt;&lt;br/&gt;+ getStudentsAdvised(): List&amp;lt;Student&amp;gt;&lt;br/&gt;+ printMenu(String): void&lt;br/&gt;~ login(String, String): boolean&lt;br/&gt;+ printRequests(): void&lt;br/&gt;+ replyRequests(): void&lt;/p&gt;" style="verticalAlign=top;align=left;overflow=fill;fontSize=14;fontFamily=Helvetica;html=1;rounded=0;shadow=0;comic=0;labelBackgroundColor=none;strokeWidth=1;" parent="1" vertex="1">
          <mxGeometry x="-158" y="541" width="309" height="309" as="geometry" />
        </mxCell>
        <mxCell id="node4" value="&lt;p style=&quot;margin:0px;margin-top:4px;text-align:center;&quot;&gt;&lt;b&gt;Course&lt;/b&gt;&lt;/p&gt;&lt;hr size=&quot;1&quot;/&gt;&lt;p style=&quot;margin:0 0 0 4px;line-height:1.6;&quot;&gt;+ Course(String, String, int, byte): &lt;/p&gt;&lt;hr size=&quot;1&quot;/&gt;&lt;p style=&quot;margin:0 0 0 4px;line-height:1.6;&quot;&gt;- courseCredit: int&lt;br/&gt;- preRequisiteCourses: List&amp;lt;Course&amp;gt;&lt;br/&gt;- courseCode: String&lt;br/&gt;- lecturer: Lecturer&lt;br/&gt;- courseSections: List&amp;lt;CourseSection&amp;gt;&lt;br/&gt;- courseName: String&lt;br/&gt;- gradeLevel: byte&lt;/p&gt;&lt;hr size=&quot;1&quot;/&gt;&lt;p style=&quot;margin:0 0 0 4px;line-height:1.6;&quot;&gt;+ setLecturer(Lecturer): void&lt;br/&gt;+ getCourseCode(): String&lt;br/&gt;+ getCourseName(): String&lt;br/&gt;+ getCourseCredit(): int&lt;br/&gt;+ getPreRequisiteCourses(): List&amp;lt;Course&amp;gt;&lt;br/&gt;+ getGradeLevel(): byte&lt;br/&gt;+ getCourseSections(): List&lt;/p&gt;" style="verticalAlign=top;align=left;overflow=fill;fontSize=14;fontFamily=Helvetica;html=1;rounded=0;shadow=0;comic=0;labelBackgroundColor=none;strokeWidth=1;" parent="1" vertex="1">
          <mxGeometry x="1296" y="-369" width="297" height="403" as="geometry" />
        </mxCell>
        <mxCell id="node5" value="&lt;p style=&quot;margin:0px;margin-top:4px;text-align:center;&quot;&gt;&lt;b&gt;CourseRegistrationSystem&lt;/b&gt;&lt;/p&gt;&lt;hr size=&quot;1&quot;/&gt;&lt;p style=&quot;margin:0 0 0 4px;line-height:1.6;&quot;&gt;+ CourseRegistrationSystem(): &lt;/p&gt;&lt;hr size=&quot;1&quot;/&gt;&lt;p style=&quot;margin:0 0 0 4px;line-height:1.6;&quot;&gt;- choice: int&lt;br/&gt;- input: Scanner&lt;br/&gt;- department: Department&lt;/p&gt;&lt;hr size=&quot;1&quot;/&gt;&lt;p style=&quot;margin:0 0 0 4px;line-height:1.6;&quot;&gt;+ mainMenu(Department): void&lt;br/&gt;+ start(): void&lt;br/&gt;+ advisorMenu(Advisor): void&lt;br/&gt;+ studentMenu(Student): void&lt;br/&gt;+ courseSelectionMenu(Student): void&lt;br/&gt;+ getInput(): int&lt;br/&gt;+ exitProgram(): void&lt;br/&gt;+ loginMenu(Department): void&lt;br/&gt;+ printMenu(String): void&lt;/p&gt;" style="verticalAlign=top;align=left;overflow=fill;fontSize=14;fontFamily=Helvetica;html=1;rounded=0;shadow=0;comic=0;labelBackgroundColor=none;strokeWidth=1;" parent="1" vertex="1">
          <mxGeometry x="171" y="517" width="271" height="363" as="geometry" />
        </mxCell>
        <mxCell id="node14" value="&lt;p style=&quot;margin:0px;margin-top:4px;text-align:center;&quot;&gt;&lt;b&gt;CourseSection&lt;/b&gt;&lt;/p&gt;&lt;hr size=&quot;1&quot;/&gt;&lt;p style=&quot;margin:0 0 0 4px;line-height:1.6;&quot;&gt;+ CourseSection(Course, String, String, int): &lt;/p&gt;&lt;hr size=&quot;1&quot;/&gt;&lt;p style=&quot;margin:0 0 0 4px;line-height:1.6;&quot;&gt;- day: String&lt;br/&gt;- courseSectionCode: String&lt;br/&gt;- hour: int&lt;br/&gt;- students: List&lt;/p&gt;&lt;hr size=&quot;1&quot;/&gt;&lt;p style=&quot;margin:0 0 0 4px;line-height:1.6;&quot;&gt;+ getCourseSectionCode(): String&lt;/p&gt;" style="verticalAlign=top;align=left;overflow=fill;fontSize=14;fontFamily=Helvetica;html=1;rounded=0;shadow=0;comic=0;labelBackgroundColor=none;strokeWidth=1;" parent="1" vertex="1">
          <mxGeometry x="1287" y="84" width="314" height="206" as="geometry" />
        </mxCell>
        <mxCell id="node9" value="&lt;p style=&quot;margin:0px;margin-top:4px;text-align:center;&quot;&gt;&lt;b&gt;Department&lt;/b&gt;&lt;/p&gt;&lt;hr size=&quot;1&quot;/&gt;&lt;p style=&quot;margin:0 0 0 4px;line-height:1.6;&quot;&gt;+ Department(String): &lt;/p&gt;&lt;hr size=&quot;1&quot;/&gt;&lt;p style=&quot;margin:0 0 0 4px;line-height:1.6;&quot;&gt;- advisorIDAdvisorMap: Map&amp;lt;Integer, Advisor&amp;gt;&lt;br/&gt;- sectionCourseMap: Map&amp;lt;CourseSection, Course&amp;gt;&lt;br/&gt;- advisors: List&amp;lt;Advisor&amp;gt;&lt;br/&gt;- sectionCodeCourseMap: Map&amp;lt;String, Course&amp;gt;&lt;br/&gt;- courses: List&amp;lt;Course&amp;gt;&lt;br/&gt;- lecturers: List&amp;lt;Lecturer&amp;gt;&lt;br/&gt;- userNamePersonMap: Map&amp;lt;String, Person&amp;gt;&lt;br/&gt;- maxCourseNumber: byte&lt;br/&gt;- courseSections: List&amp;lt;CourseSection&amp;gt;&lt;br/&gt;- departmentName: String&lt;br/&gt;- students: List&amp;lt;Student&amp;gt;&lt;br/&gt;- studentIDStudentMap: Map&amp;lt;Integer, Student&amp;gt;&lt;br/&gt;- transcripts: List&amp;lt;Transcript&amp;gt;&lt;br/&gt;- courseCodeCourseMap: Map&amp;lt;String, Course&amp;gt;&lt;/p&gt;&lt;hr size=&quot;1&quot;/&gt;&lt;p style=&quot;margin:0 0 0 4px;line-height:1.6;&quot;&gt;+ getAdvisors(): List&amp;lt;Advisor&amp;gt;&lt;br/&gt;+ getStudents(): List&amp;lt;Student&amp;gt;&lt;br/&gt;+ getSectionCodeCourseMap(): Map&amp;lt;String, Course&amp;gt;&lt;br/&gt;+ getStudentIDStudentMap(): Map&amp;lt;Integer, Student&amp;gt;&lt;br/&gt;+ getCourseCodeCourseMap(): Map&amp;lt;String, Course&amp;gt;&lt;br/&gt;+ getSectionCourseMap(): Map&amp;lt;CourseSection, Course&amp;gt;&lt;br/&gt;+ getTranscripts(): List&amp;lt;Transcript&amp;gt;&lt;br/&gt;+ getCourseSections(): List&amp;lt;CourseSection&amp;gt;&lt;br/&gt;+ getUserNamePersonMap(): Map&amp;lt;String, Person&amp;gt;&lt;br/&gt;+ getMaxCourseNumber(): byte&lt;br/&gt;+ getAdvisorIDAdvisorMap(): Map&amp;lt;Integer, Advisor&amp;gt;&lt;br/&gt;+ getDepartmentName(): String&lt;br/&gt;+ getLecturers(): List&amp;lt;Lecturer&amp;gt;&lt;br/&gt;+ getCourses(): List&amp;lt;Course&amp;gt;&lt;/p&gt;" style="verticalAlign=top;align=left;overflow=fill;fontSize=14;fontFamily=Helvetica;html=1;rounded=0;shadow=0;comic=0;labelBackgroundColor=none;strokeWidth=1;" parent="1" vertex="1">
          <mxGeometry x="853" y="-369" width="389" height="719" as="geometry" />
        </mxCell>
        <mxCell id="node6" value="&lt;p style=&quot;margin:0px;margin-top:4px;text-align:center;&quot;&gt;&lt;b&gt;Grade&lt;/b&gt;&lt;/p&gt;&lt;hr size=&quot;1&quot;/&gt;&lt;p style=&quot;margin:0 0 0 4px;line-height:1.6;&quot;&gt;+ Grade(String): &lt;/p&gt;&lt;hr size=&quot;1&quot;/&gt;&lt;p style=&quot;margin:0 0 0 4px;line-height:1.6;&quot;&gt;- gradeOver4: double&lt;br/&gt;- gradeOver100: int&lt;br/&gt;- letterGrade: String&lt;/p&gt;&lt;hr size=&quot;1&quot;/&gt;&lt;p style=&quot;margin:0 0 0 4px;line-height:1.6;&quot;&gt;- setGradeOver4(): void&lt;br/&gt;+ getLetterGrade(): String&lt;br/&gt;- setGradeOver100(): void&lt;br/&gt;+ getGradeOver4(): double&lt;/p&gt;" style="verticalAlign=top;align=left;overflow=fill;fontSize=14;fontFamily=Helvetica;html=1;rounded=0;shadow=0;comic=0;labelBackgroundColor=none;strokeWidth=1;" parent="1" vertex="1">
          <mxGeometry x="-1104" y="-60" width="199" height="245" as="geometry" />
        </mxCell>
        <mxCell id="node12" value="&lt;p style=&quot;margin:0px;margin-top:4px;text-align:center;&quot;&gt;&lt;i&gt;&amp;lt;&amp;lt;interface&amp;gt;&amp;gt;&lt;/i&gt;&lt;br/&gt;&lt;b&gt;IDisplayMenu&lt;/b&gt;&lt;/p&gt;&lt;hr size=&quot;1&quot;/&gt;&lt;p style=&quot;margin:0 0 0 4px;line-height:1.6;&quot;&gt;+ printMenu(String): void&lt;/p&gt;" style="verticalAlign=top;align=left;overflow=fill;fontSize=14;fontFamily=Helvetica;html=1;rounded=0;shadow=0;comic=0;labelBackgroundColor=none;strokeWidth=1;" parent="1" vertex="1">
          <mxGeometry x="238" y="184" width="190" height="79" as="geometry" />
        </mxCell>
        <mxCell id="node18" value="&lt;p style=&quot;margin:0px;margin-top:4px;text-align:center;&quot;&gt;&lt;b&gt;JSONReader&lt;/b&gt;&lt;/p&gt;&lt;hr size=&quot;1&quot;/&gt;&lt;p style=&quot;margin:0 0 0 4px;line-height:1.6;&quot;&gt;+ JSONReader(): &lt;/p&gt;&lt;hr size=&quot;1&quot;/&gt;&lt;p style=&quot;margin:0 0 0 4px;line-height:1.6;&quot;&gt;- studentRegistrationMap: Map&amp;lt;Student, Registration&amp;gt;&lt;br/&gt;- mapper: ObjectMapper&lt;br/&gt;- advisorIDCoursesMap: Map&amp;lt;Integer, List&amp;lt;String&amp;gt;&amp;gt;&lt;br/&gt;- coursePrerequisiteCourseCodesMap: Map&amp;lt;Course, List&amp;lt;String&amp;gt;&amp;gt;&lt;br/&gt;- lecturerIDCoursesMap: Map&amp;lt;Integer, List&amp;lt;String&amp;gt;&amp;gt;&lt;br/&gt;- studentIDAdvisorIDMap: Map&amp;lt;Integer, Integer&amp;gt;&lt;br/&gt;- department: Department&lt;br/&gt;- courseSectionCodesMap: Map&amp;lt;Course, List&amp;lt;String&amp;gt;&amp;gt;&lt;br/&gt;- studentIDDraftMap: Map&amp;lt;Integer, List&amp;lt;String&amp;gt;&amp;gt;&lt;br/&gt;- jsonNode: JsonNode&lt;/p&gt;&lt;hr size=&quot;1&quot;/&gt;&lt;p style=&quot;margin:0 0 0 4px;line-height:1.6;&quot;&gt;+ readCourses(): void&lt;br/&gt;+ start(Department): void&lt;br/&gt;+ readTranscript(Student): void&lt;br/&gt;+ readAdvisors(): void&lt;br/&gt;+ readStudents(): void&lt;br/&gt;+ readRequests(): void&lt;br/&gt;+ readCourseSections(): void&lt;br/&gt;+ readJson(): void&lt;br/&gt;+ syncObjects(): void&lt;br/&gt;+ readLecturers(): void&lt;/p&gt;" style="verticalAlign=top;align=left;overflow=fill;fontSize=14;fontFamily=Helvetica;html=1;rounded=0;shadow=0;comic=0;labelBackgroundColor=none;strokeWidth=1;" parent="1" vertex="1">
          <mxGeometry x="-820" y="-390" width="454" height="535" as="geometry" />
        </mxCell>
        <mxCell id="node2" value="&lt;p style=&quot;margin:0px;margin-top:4px;text-align:center;&quot;&gt;&lt;b&gt;JSONWriter&lt;/b&gt;&lt;/p&gt;&lt;hr size=&quot;1&quot;/&gt;&lt;p style=&quot;margin:0 0 0 4px;line-height:1.6;&quot;&gt;+ JSONWriter(): &lt;/p&gt;&lt;hr size=&quot;1&quot;/&gt;&lt;p style=&quot;margin:0 0 0 4px;line-height:1.6;&quot;&gt;- objectMapper: ObjectMapper&lt;br/&gt;- department: Department&lt;br/&gt;- jsonNode: JsonNode&lt;/p&gt;&lt;hr size=&quot;1&quot;/&gt;&lt;p style=&quot;margin:0 0 0 4px;line-height:1.6;&quot;&gt;+ writeStudents(): void&lt;br/&gt;+ writeTranscripts(): void&lt;br/&gt;+ writeJson(): void&lt;br/&gt;+ start(Department): void&lt;br/&gt;+ writeRequests(): void&lt;/p&gt;" style="verticalAlign=top;align=left;overflow=fill;fontSize=14;fontFamily=Helvetica;html=1;rounded=0;shadow=0;comic=0;labelBackgroundColor=none;strokeWidth=1;" parent="1" vertex="1">
          <mxGeometry x="-1104" y="-390" width="224" height="275" as="geometry" />
        </mxCell>
        <mxCell id="node13" value="&lt;p style=&quot;margin:0px;margin-top:4px;text-align:center;&quot;&gt;&lt;b&gt;Lecturer&lt;/b&gt;&lt;/p&gt;&lt;hr size=&quot;1&quot;/&gt;&lt;p style=&quot;margin:0 0 0 4px;line-height:1.6;&quot;&gt;+ Lecturer(int, String, String, String, String): &lt;br/&gt;+ Lecturer(int, String, String): &lt;/p&gt;&lt;hr size=&quot;1&quot;/&gt;&lt;p style=&quot;margin:0 0 0 4px;line-height:1.6;&quot;&gt;- lessonsTaught: List&amp;lt;Course&amp;gt;&lt;/p&gt;&lt;hr size=&quot;1&quot;/&gt;&lt;p style=&quot;margin:0 0 0 4px;line-height:1.6;&quot;&gt;+ getLessonsTaught(): List&amp;lt;Course&amp;gt;&lt;br/&gt;~ login(String, String): boolean&lt;/p&gt;" style="verticalAlign=top;align=left;overflow=fill;fontSize=14;fontFamily=Helvetica;html=1;rounded=0;shadow=0;comic=0;labelBackgroundColor=none;strokeWidth=1;" parent="1" vertex="1">
          <mxGeometry x="-179" y="120" width="313" height="177" as="geometry" />
        </mxCell>
        <mxCell id="node10" value="&lt;p style=&quot;margin:0px;margin-top:4px;text-align:center;&quot;&gt;&lt;b&gt;Person&lt;/b&gt;&lt;/p&gt;&lt;p style=&quot;margin:0px;margin-top:4px;text-align:center;&quot;&gt;&lt;b&gt;{abstratc}&lt;/b&gt;&lt;/p&gt;&lt;hr size=&quot;1&quot;&gt;&lt;p style=&quot;margin:0 0 0 4px;line-height:1.6;&quot;&gt;+ Person(int, String, String, String, String): &lt;/p&gt;&lt;hr size=&quot;1&quot;&gt;&lt;p style=&quot;margin:0 0 0 4px;line-height:1.6;&quot;&gt;- name: String&lt;br&gt;- surname: String&lt;br&gt;- password: String&lt;br&gt;- department: Department&lt;br&gt;- ID: int&lt;br&gt;- userName: String&lt;/p&gt;&lt;hr size=&quot;1&quot;&gt;&lt;p style=&quot;margin:0 0 0 4px;line-height:1.6;&quot;&gt;+ setUserName(String): void&lt;br&gt;+ getDepartment(): Department&lt;br&gt;+ setPassword(String): void&lt;br&gt;+ setDepartment(Department): void&lt;br&gt;+ getID(): int&lt;br&gt;~ login(String, String): boolean&lt;br&gt;+ getPassword(): String&lt;br&gt;+ getUserName(): String&lt;br&gt;+ getSurname(): String&lt;br&gt;+ getName(): String&lt;/p&gt;" style="verticalAlign=top;align=left;overflow=fill;fontSize=14;fontFamily=Helvetica;html=1;rounded=0;shadow=0;comic=0;labelBackgroundColor=none;strokeWidth=1;" parent="1" vertex="1">
          <mxGeometry x="151" y="-390" width="305" height="472" as="geometry" />
        </mxCell>
        <mxCell id="node7" value="&lt;p style=&quot;margin:0px;margin-top:4px;text-align:center;&quot;&gt;&lt;b&gt;Registration&lt;/b&gt;&lt;/p&gt;&lt;hr size=&quot;1&quot;/&gt;&lt;p style=&quot;margin:0 0 0 4px;line-height:1.6;&quot;&gt;+ Registration(Student, List&amp;lt;Course&amp;gt;): &lt;/p&gt;&lt;hr size=&quot;1&quot;/&gt;&lt;p style=&quot;margin:0 0 0 4px;line-height:1.6;&quot;&gt;- student: Student&lt;br/&gt;- courses: List&amp;lt;Course&amp;gt;&lt;/p&gt;&lt;hr size=&quot;1&quot;/&gt;&lt;p style=&quot;margin:0 0 0 4px;line-height:1.6;&quot;&gt;+ getCourses(): List&amp;lt;Course&amp;gt;&lt;br/&gt;+ approveRequest(): void&lt;br/&gt;+ getStudent(): Student&lt;br/&gt;+ rejectRequest(): void&lt;br/&gt;+ addRequest(Advisor): void&lt;/p&gt;" style="verticalAlign=top;align=left;overflow=fill;fontSize=14;fontFamily=Helvetica;html=1;rounded=0;shadow=0;comic=0;labelBackgroundColor=none;strokeWidth=1;" parent="1" vertex="1">
          <mxGeometry x="-1104" y="263" width="280" height="245" as="geometry" />
        </mxCell>
        <mxCell id="node15" value="&lt;p style=&quot;margin:0px;margin-top:4px;text-align:center;&quot;&gt;&lt;b&gt;Student&lt;/b&gt;&lt;/p&gt;&lt;hr size=&quot;1&quot;/&gt;&lt;p style=&quot;margin:0 0 0 4px;line-height:1.6;&quot;&gt;+ Student(int, String, String, String, String, byte): &lt;/p&gt;&lt;hr size=&quot;1&quot;/&gt;&lt;p style=&quot;margin:0 0 0 4px;line-height:1.6;&quot;&gt;- advisor: Advisor&lt;br/&gt;- hasRequest: boolean&lt;br/&gt;- gradeLevel: byte&lt;br/&gt;- availableCourses: List&amp;lt;Course&amp;gt;&lt;br/&gt;- draft: List&amp;lt;Course&amp;gt;&lt;br/&gt;- transcript: Transcript&lt;/p&gt;&lt;hr size=&quot;1&quot;/&gt;&lt;p style=&quot;margin:0 0 0 4px;line-height:1.6;&quot;&gt;+ getAvailableCourses(): List&amp;lt;Course&amp;gt;&lt;br/&gt;+ getDraft(): List&amp;lt;Course&amp;gt;&lt;br/&gt;+ setUserName(String): void&lt;br/&gt;+ getGradeLevel(): byte&lt;br/&gt;+ getTranscript(): Transcript&lt;br/&gt;+ viewAvailableCourses(): void&lt;br/&gt;+ sendRequest(): void&lt;br/&gt;+ dropCourse(): void&lt;br/&gt;+ addCourse(): void&lt;br/&gt;- calculateNumberOfCourses(): int&lt;br/&gt;+ setPassword(String): void&lt;br/&gt;+ getDepartmentName(): String&lt;br/&gt;+ printMenu(String): void&lt;br/&gt;~ login(String, String): boolean&lt;br/&gt;+ setDraft(List&amp;lt;Course&amp;gt;): void&lt;br/&gt;+ showRequestStatus(): void&lt;br/&gt;+ getAdvisor(): Advisor&lt;br/&gt;+ setAdvisor(Advisor): void&lt;br/&gt;+ setHasRequest(boolean): void&lt;br/&gt;+ setTranscript(Transcript): void&lt;/p&gt;" style="verticalAlign=top;align=left;overflow=fill;fontSize=14;fontFamily=Helvetica;html=1;rounded=0;shadow=0;comic=0;labelBackgroundColor=none;strokeWidth=1;" parent="1" vertex="1">
          <mxGeometry x="462" y="349" width="346" height="681" as="geometry" />
        </mxCell>
        <mxCell id="node0" value="&lt;p style=&quot;margin:0px;margin-top:4px;text-align:center;&quot;&gt;&lt;b&gt;Transcript&lt;/b&gt;&lt;/p&gt;&lt;hr size=&quot;1&quot;/&gt;&lt;p style=&quot;margin:0 0 0 4px;line-height:1.6;&quot;&gt;+ Transcript(Student): &lt;/p&gt;&lt;hr size=&quot;1&quot;/&gt;&lt;p style=&quot;margin:0 0 0 4px;line-height:1.6;&quot;&gt;- student: Student&lt;br/&gt;- gradeLevel: byte&lt;br/&gt;- cgpa: double&lt;br/&gt;- takenCredits: int&lt;br/&gt;- completedCredits: int&lt;br/&gt;- courseGradeMap: Map&amp;lt;Course, Grade&amp;gt;&lt;br/&gt;- studentCourses: List&amp;lt;Course&amp;gt;&lt;/p&gt;&lt;hr size=&quot;1&quot;/&gt;&lt;p style=&quot;margin:0 0 0 4px;line-height:1.6;&quot;&gt;+ courseStatusCheck(): void&lt;br/&gt;+ getStudentCourses(): List&amp;lt;Course&amp;gt;&lt;br/&gt;+ calculateCompletedCredits(): int&lt;br/&gt;+ getCompletedCredits(): int&lt;br/&gt;+ getCgpa(): double&lt;br/&gt;+ calculateValues(): void&lt;br/&gt;+ setStudent(Student): void&lt;br/&gt;+ getTakenCredits(): int&lt;br/&gt;+ calculateCgpa(): double&lt;br/&gt;+ showTranscript(): void&lt;br/&gt;+ calculateTakenCredits(): int&lt;br/&gt;+ setStudentCourses(List&amp;lt;Course&amp;gt;): void&lt;br/&gt;+ getCourseGradeMap(): Map&amp;lt;Course, Grade&amp;gt;&lt;br/&gt;+ setCourseGradeMap(Map&amp;lt;Course, Grade&amp;gt;): void&lt;br/&gt;+ setTakenCredits(int): void&lt;/p&gt;" style="verticalAlign=top;align=left;overflow=fill;fontSize=14;fontFamily=Helvetica;html=1;rounded=0;shadow=0;comic=0;labelBackgroundColor=none;strokeWidth=1;" parent="1" vertex="1">
          <mxGeometry x="1646" y="-369" width="352" height="589" as="geometry" />
        </mxCell>
        <mxCell id="node17" value="&lt;p style=&quot;margin:0px;margin-top:4px;text-align:center;&quot;&gt;&lt;b&gt;main&lt;/b&gt;&lt;/p&gt;&lt;hr size=&quot;1&quot;/&gt;&lt;p style=&quot;margin:0 0 0 4px;line-height:1.6;&quot;&gt;+ main(): &lt;/p&gt;&lt;hr size=&quot;1&quot;/&gt;&lt;p style=&quot;margin:0 0 0 4px;line-height:1.6;&quot;&gt;+ main(String[]): void&lt;/p&gt;" style="verticalAlign=top;align=left;overflow=fill;fontSize=14;fontFamily=Helvetica;html=1;rounded=0;shadow=0;comic=0;labelBackgroundColor=none;strokeWidth=1;" parent="1" vertex="1">
          <mxGeometry x="-720" y="263" width="168" height="96" as="geometry" />
        </mxCell>
        <mxCell id="edge6" value="" style="html=1;rounded=1;edgeStyle=orthogonalEdgeStyle;dashed=1;startArrow=none;endArrow=block;endSize=12;strokeColor=#008200;exitX=0.750;exitY=0.000;exitDx=0;exitDy=0;entryX=0.500;entryY=1.001;entryDx=0;entryDy=0;" parent="1" source="node3" target="node12" edge="1">
          <mxGeometry width="50" height="50" relative="1" as="geometry">
            <Array as="points">
              <mxPoint x="74" y="323" />
              <mxPoint x="333" y="323" />
            </Array>
          </mxGeometry>
        </mxCell>
        <mxCell id="edge0" value="" style="html=1;rounded=1;edgeStyle=orthogonalEdgeStyle;dashed=0;startArrow=none;endArrow=block;endSize=12;strokeColor=#000082;exitX=0.250;exitY=0.000;exitDx=0;exitDy=0;entryX=0.500;entryY=1.000;entryDx=0;entryDy=0;" parent="1" source="node3" target="node13" edge="1">
          <mxGeometry width="50" height="50" relative="1" as="geometry">
            <Array as="points">
              <mxPoint x="-80" y="323" />
              <mxPoint x="-22" y="323" />
            </Array>
          </mxGeometry>
        </mxCell>
        <mxCell id="edge1" value="" style="html=1;rounded=1;edgeStyle=orthogonalEdgeStyle;dashed=1;startArrow=none;endArrow=block;endSize=12;strokeColor=#008200;exitX=0.500;exitY=0.000;exitDx=0;exitDy=0;entryX=0.500;entryY=1.001;entryDx=0;entryDy=0;" parent="1" source="node5" target="node12" edge="1">
          <mxGeometry width="50" height="50" relative="1" as="geometry">
            <Array as="points">
              <mxPoint x="307" y="323" />
              <mxPoint x="333" y="323" />
            </Array>
          </mxGeometry>
        </mxCell>
        <mxCell id="edge5" value="" style="html=1;rounded=1;edgeStyle=orthogonalEdgeStyle;dashed=0;startArrow=none;endArrow=block;endSize=12;strokeColor=#000082;exitX=0.500;exitY=0.000;exitDx=0;exitDy=0;entryX=0.500;entryY=1.000;entryDx=0;entryDy=0;" parent="1" source="node14" target="node4" edge="1">
          <mxGeometry width="50" height="50" relative="1" as="geometry">
            <Array as="points" />
          </mxGeometry>
        </mxCell>
        <mxCell id="edge4" value="" style="html=1;rounded=1;edgeStyle=orthogonalEdgeStyle;dashed=0;startArrow=none;endArrow=block;endSize=12;strokeColor=#000082;exitX=0.500;exitY=0.000;exitDx=0;exitDy=0;entryX=0.500;entryY=1.000;entryDx=0;entryDy=0;" parent="1" source="node13" target="node10" edge="1">
          <mxGeometry width="50" height="50" relative="1" as="geometry">
            <Array as="points">
              <mxPoint x="-22" y="108" />
              <mxPoint x="304" y="108" />
            </Array>
          </mxGeometry>
        </mxCell>
        <mxCell id="edge3" value="" style="html=1;rounded=1;edgeStyle=orthogonalEdgeStyle;dashed=1;startArrow=none;endArrow=block;endSize=12;strokeColor=#008200;exitX=0.250;exitY=0.000;exitDx=0;exitDy=0;entryX=0.500;entryY=1.001;entryDx=0;entryDy=0;" parent="1" source="node15" target="node12" edge="1">
          <mxGeometry width="50" height="50" relative="1" as="geometry">
            <Array as="points">
              <mxPoint x="549" y="323" />
              <mxPoint x="333" y="323" />
            </Array>
          </mxGeometry>
        </mxCell>
        <mxCell id="edge2" value="" style="html=1;rounded=1;edgeStyle=orthogonalEdgeStyle;dashed=0;startArrow=none;endArrow=block;endSize=12;strokeColor=#000082;exitX=0.750;exitY=0.000;exitDx=0;exitDy=0;entryX=0.500;entryY=1.000;entryDx=0;entryDy=0;" parent="1" source="node15" target="node10" edge="1">
          <mxGeometry width="50" height="50" relative="1" as="geometry">
            <Array as="points">
              <mxPoint x="722" y="323" />
              <mxPoint x="640" y="323" />
              <mxPoint x="640" y="108" />
              <mxPoint x="304" y="108" />
            </Array>
          </mxGeometry>
        </mxCell>
      </root>
    </mxGraphModel>
  </diagram>
</mxfile>
